<?xml version="1.0" encoding="UTF-8"?>
<svg width="200px" height="21px" viewBox="0 0 200 21" version="1.1" xmlns="http://www.w3.org/2000/svg" xmlns:xlink="http://www.w3.org/1999/xlink">
    <!-- Generator: Sketch 48.2 (47327) - http://www.bohemiancoding.com/sketch -->
    <title>FB logo</title>
    <desc>Created with Sketch.</desc>
    <defs></defs>
    <g id="Menu/Normal" stroke="none" stroke-width="1" fill="none" fill-rule="evenodd" transform="translate(-161.000000, -31.000000)">
        <g id="FB-logo" transform="translate(161.000000, 31.000000)" fill="#4367B0">
            <path d="M113.107405,20.0257595 L110.920696,20.0257595 L110.920696,7.75740506 L113.107405,7.41056962 L113.107405,9.5706962 C113.961203,8.21056962 114.974494,7.41056962 116.521329,7.41056962 C117.347911,7.41056962 118.175127,7.62386076 118.815633,8.02386076 L118.254873,10.0770253 C117.588418,9.67702532 116.921329,9.51753165 116.308038,9.51753165 C115.13462,9.51753165 114.014367,10.3713291 113.107405,12.0510759 L113.107405,20.0257595 Z" id="Fill-1"></path>
            <path d="M128.323861,12.5312658 L128.323861,12.344557 C128.323861,10.5306329 127.470063,9.33063291 125.550443,9.33063291 C123.46943,9.33063291 122.243481,10.9844304 122.056772,12.5844304 L128.323861,12.5312658 Z M121.94981,14.2913924 C122.03019,16.6920253 123.63019,18.3989873 125.977025,18.3989873 C127.256772,18.3989873 128.644114,18.0521519 129.63019,17.3850633 L130.03019,19.4122785 C128.937152,20.0793671 127.470063,20.4255696 125.923228,20.4255696 C122.243481,20.4255696 119.735886,17.7850633 119.735886,14.051519 C119.735886,10.1040506 122.34981,7.41037975 125.763101,7.41037975 C128.723861,7.41037975 130.430823,9.27746835 130.430823,12.1844304 C130.430823,12.851519 130.324494,13.5983544 130.164367,14.1312658 C130.137152,14.1312658 121.94981,14.1850633 121.94981,14.1850633 L121.94981,14.2913924 Z" id="Fill-3"></path>
            <path d="M136.411392,20.4525949 C134.918354,20.4525949 133.264557,19.9994304 132.144304,19.3057595 L132.70443,17.3051266 C133.717722,17.9987975 135.211392,18.451962 136.46519,18.451962 C137.851899,18.451962 138.892405,17.8120886 138.892405,16.7190506 C138.892405,15.4918354 137.452532,15.0918354 136.011392,14.6918354 C134.278481,14.2114557 132.384177,13.3582911 132.384177,11.1177848 C132.384177,8.8506962 134.30443,7.41082278 136.758228,7.41082278 C138.171519,7.41082278 139.586076,7.75702532 140.705696,8.3171519 L140.14557,10.3177848 C139.132278,9.75765823 137.664557,9.41082278 136.651266,9.41082278 C135.344937,9.41082278 134.491772,9.94436709 134.491772,10.9310759 C134.491772,12.1044937 135.797468,12.5044937 137.318354,12.9044937 C139.105696,13.3848734 141.025316,14.2386709 141.025316,16.5582911 C141.025316,18.8791772 139.079114,20.4525949 136.411392,20.4525949" id="Fill-5"></path>
            <path d="M151.468418,12.5312658 L151.468418,12.344557 C151.468418,10.5306329 150.61462,9.33063291 148.694367,9.33063291 C146.61462,9.33063291 145.387405,10.9844304 145.200696,12.5844304 L151.468418,12.5312658 Z M145.094367,14.2913924 C145.174114,16.6920253 146.774114,18.3989873 149.121582,18.3989873 C150.401329,18.3989873 151.788671,18.0521519 152.774747,17.3850633 L153.17538,19.4122785 C152.082342,20.0793671 150.61462,20.4255696 149.068418,20.4255696 C145.387405,20.4255696 142.880443,17.7850633 142.880443,14.051519 C142.880443,10.1040506 145.494367,7.41037975 148.907658,7.41037975 C151.868418,7.41037975 153.57538,9.27746835 153.57538,12.1844304 C153.57538,12.851519 153.468418,13.5983544 153.308291,14.1312658 C153.281709,14.1312658 145.094367,14.1850633 145.094367,14.1850633 L145.094367,14.2913924 Z" id="Fill-7"></path>
            <path d="M162.596266,13.9448101 C158.969051,14.424557 157.635506,15.1713924 157.635506,16.6650633 C157.635506,17.7587342 158.463354,18.5587342 159.796266,18.5587342 C160.916519,18.5587342 161.903228,17.9986076 162.596266,17.2524051 L162.596266,13.9448101 Z M162.570316,18.7188608 C161.636139,19.8125316 160.516519,20.4258228 159.209557,20.4258228 C156.915253,20.4258228 155.315253,18.9055696 155.315253,16.931519 C155.315253,14.7448101 156.888671,12.824557 162.596266,12.5574684 L162.596266,12.2112658 C162.596266,10.2378481 161.823481,9.43721519 159.84943,9.43721519 C158.596266,9.43721519 157.048797,10.0239241 155.902595,10.7973418 L155.47538,8.82392405 C156.542468,8.07708861 158.329177,7.41063291 160.062722,7.41063291 C163.370316,7.41063291 164.837405,8.82392405 164.783608,12.1574684 L164.783608,17.2783544 C164.783608,18.2922785 164.917152,18.4789873 165.984241,18.4789873 L165.850696,20.3188608 C163.876646,20.4789873 162.996899,19.7859494 162.676646,18.7188608 L162.570316,18.7188608 Z" id="Fill-9"></path>
            <path d="M170.37481,20.0257595 L168.188101,20.0257595 L168.188101,7.75740506 L170.37481,7.41056962 L170.37481,9.5706962 C171.228608,8.21056962 172.241899,7.41056962 173.789367,7.41056962 C174.615316,7.41056962 175.442532,7.62386076 176.082405,8.02386076 L175.522278,10.0770253 C174.855823,9.67702532 174.188734,9.51753165 173.575443,9.51753165 C172.402025,9.51753165 171.282405,10.3713291 170.37481,12.0510759 L170.37481,20.0257595 Z" id="Fill-11"></path>
            <path d="M183.03057,20.4256962 C179.163481,20.4256962 177.03057,17.7851899 177.03057,13.9181013 C177.03057,10.0237975 179.616646,7.41050633 183.191329,7.41050633 C184.764747,7.41050633 186.018544,7.75734177 187.138797,8.45037975 L186.578038,10.4510127 C185.564747,9.75734177 184.417911,9.43772152 183.191329,9.43772152 C180.683734,9.43772152 179.297658,11.1440506 179.297658,13.891519 C179.297658,16.7187342 180.844494,18.3991139 183.137532,18.3991139 C184.417911,18.3991139 185.671709,18.0522785 186.657785,17.3851899 L187.058418,19.4117722 C185.96538,20.0794937 184.578038,20.4256962 183.03057,20.4256962" id="Fill-13"></path>
            <path d="M197.368101,20.0257595 L197.368101,12.3447468 C197.368101,10.2377848 196.567468,9.51753165 194.967468,9.51753165 C193.554177,9.51753165 192.326962,10.1839873 191.633291,10.850443 L191.633291,20.0257595 L189.446582,20.0257595 L189.446582,2.04917722 L191.633291,1.70297468 L191.633291,9.19727848 C192.754177,8.07702532 194.194051,7.41056962 195.740886,7.41056962 C198.087722,7.41056962 199.55481,8.98398734 199.55481,11.6244937 L199.55481,20.0257595 L197.368101,20.0257595 Z" id="Fill-15"></path>
            <path d="M8.04291139,3.75335443 C6.83278481,3.75335443 6.48278481,4.29132911 6.48278481,5.47487342 L6.48278481,7.43816456 L9.71063291,7.43816456 L9.3878481,10.6128481 L6.48278481,10.6128481 L6.48278481,20.2425949 L2.60936709,20.2425949 L2.60936709,10.6128481 L-0.000126582278,10.6128481 L-0.000126582278,7.43816456 L2.60936709,7.43816456 L2.60936709,5.52867089 C2.60936709,2.32803797 3.90050633,0.633101266 7.50493671,0.633101266 C8.28531646,0.633101266 9.19987342,0.686898734 9.76443038,0.767278481 L9.76443038,3.75335443 L8.04291139,3.75335443 Z" id="Fill-18"></path>
            <path d="M13.8528481,14.298038 C13.8528481,16.2081646 14.5522152,17.4720886 16.3547468,17.4720886 C17.9414557,17.4720886 18.7484177,16.3157595 18.7484177,14.4860127 L18.7484177,13.1948734 C18.7484177,11.3657595 17.9414557,10.2094304 16.3547468,10.2094304 C14.5522152,10.2094304 13.8528481,11.4733544 13.8528481,13.383481 L13.8528481,14.298038 Z M9.97879747,13.4372785 C9.97879747,9.85943038 11.6737342,7.16955696 15.2243671,7.16955696 C17.1617089,7.16955696 18.3452532,8.16512658 18.9098101,9.40246835 L18.9098101,7.4385443 L22.6218354,7.4385443 L22.6218354,20.2429747 L18.9098101,20.2429747 L18.9098101,18.3062658 C18.3718354,19.5436076 17.1617089,20.511962 15.2243671,20.511962 C11.6737342,20.511962 9.97879747,17.8220886 9.97879747,14.2442405 L9.97879747,13.4372785 Z" id="Fill-21"></path>
            <path d="M30.6908228,7.16949367 C32.1971519,7.16949367 33.6231013,7.49227848 34.4028481,8.03025316 L33.5420886,10.7739241 C32.9503165,10.4783544 31.981962,10.1821519 30.9598101,10.1821519 C28.8617089,10.1821519 27.9471519,11.3929114 27.9471519,13.4637975 L27.9471519,14.2175949 C27.9471519,16.288481 28.8617089,17.4992405 30.9598101,17.4992405 C31.981962,17.4992405 32.9503165,17.2036709 33.5420886,16.9074684 L34.4028481,19.6511392 C33.6231013,20.1891139 32.1971519,20.5118987 30.6908228,20.5118987 C26.1446203,20.5118987 24.0731013,18.0637975 24.0731013,14.1365823 L24.0731013,13.5448101 C24.0731013,9.61759494 26.1446203,7.16949367 30.6908228,7.16949367" id="Fill-23"></path>
            <path d="M38.7870253,12.6570886 L43.4674051,12.6570886 L43.4674051,12.3343038 C43.4674051,10.9355696 42.9028481,9.83240506 41.2079114,9.83240506 C39.4591772,9.83240506 38.7870253,10.9355696 38.7870253,12.6570886 M34.9136076,14.3248101 L34.9136076,13.1950633 C34.9136076,9.56341772 36.9844937,7.16974684 41.2079114,7.16974684 C45.1889241,7.16974684 46.9376582,9.59063291 46.9376582,13.1412658 L46.9376582,15.1855696 L38.7870253,15.1855696 C38.8674051,16.9343038 39.6477848,17.7146835 41.7996835,17.7146835 C43.2522152,17.7146835 44.7857595,17.418481 45.9155063,16.9343038 L46.6148734,19.596962 C45.5927215,20.1349367 43.4939873,20.5387342 41.6382911,20.5387342 C36.7427215,20.5387342 34.9136076,18.0906329 34.9136076,14.3248101" id="Fill-25"></path>
            <path d="M57.4275949,13.3563924 C57.4275949,11.5538608 56.7282278,10.2089241 54.8718987,10.2089241 C53.2851899,10.2089241 52.4244304,11.3386709 52.4244304,13.1684177 L52.4244304,14.5133544 C52.4244304,16.3424684 53.2851899,17.4722152 54.8718987,17.4722152 C56.7282278,17.4722152 57.4275949,16.1266456 57.4275949,14.3247468 L57.4275949,13.3563924 Z M61.3010127,14.2443671 C61.3010127,17.8222152 59.5794937,20.5120886 56.0288608,20.5120886 C54.091519,20.5120886 52.7472152,19.5431013 52.2092405,18.3063924 L52.2092405,20.2424684 L48.5510127,20.2424684 L48.5510127,1.00955696 L52.4244304,0.659556962 L52.4244304,9.21398734 C52.9889873,8.08424051 54.2263291,7.16968354 56.0288608,7.16968354 C59.5794937,7.16968354 61.3010127,9.85955696 61.3010127,13.4367722 L61.3010127,14.2443671 Z" id="Fill-28"></path>
            <path d="M71.468481,13.2488608 C71.468481,11.5539241 70.7691139,10.2089873 68.9665823,10.2089873 C67.1646835,10.2089873 66.4646835,11.5539241 66.4646835,13.2488608 L66.4646835,14.4324051 C66.4646835,16.1267089 67.1646835,17.4722785 68.9665823,17.4722785 C70.7691139,17.4722785 71.468481,16.1267089 71.468481,14.4324051 L71.468481,13.2488608 Z M62.5918987,14.1634177 L62.5918987,13.5178481 C62.5918987,9.83240506 64.69,7.16974684 68.9665823,7.16974684 C73.2437975,7.16974684 75.3418987,9.83240506 75.3418987,13.5178481 L75.3418987,14.1634177 C75.3418987,17.8488608 73.2437975,20.5121519 68.9665823,20.5121519 C64.69,20.5121519 62.5918987,17.8488608 62.5918987,14.1634177 Z" id="Fill-30"></path>
            <path d="M85.5090506,13.2488608 C85.5090506,11.5539241 84.8096835,10.2089873 83.0071519,10.2089873 C81.2052532,10.2089873 80.5058861,11.5539241 80.5058861,13.2488608 L80.5058861,14.4324051 C80.5058861,16.1267089 81.2052532,17.4722785 83.0071519,17.4722785 C84.8096835,17.4722785 85.5090506,16.1267089 85.5090506,14.4324051 L85.5090506,13.2488608 Z M76.6318354,14.1634177 L76.6318354,13.5178481 C76.6318354,9.83240506 78.7305696,7.16974684 83.0071519,7.16974684 C87.2843671,7.16974684 89.3824684,9.83240506 89.3824684,13.5178481 L89.3824684,14.1634177 C89.3824684,17.8488608 87.2843671,20.5121519 83.0071519,20.5121519 C78.7305696,20.5121519 76.6318354,17.8488608 76.6318354,14.1634177 Z" id="Fill-32"></path>
            <polygon id="Fill-34" points="94.7075949 13.5446203 98.5272152 7.43829114 102.643038 7.43829114 98.6348101 13.7598101 102.803797 20.2427215 98.6892405 20.2427215 94.7075949 13.975 94.7075949 20.2427215 90.8335443 20.2427215 90.8335443 1.00917722 94.7075949 0.659810127"></polygon>
        </g>
    </g>
</svg>